<?xml version="1.0" encoding="UTF-8" standalone="no"?>
<svg
   viewBox="0 0 737.23999 137.97998"
   version="1.1"
   id="svg57"
   sodipodi:docname="Brilliant Labs logo v016.svg"
   width="137.97998"
   height="137.97998"
   inkscape:version="1.2.1 (9c6d41e, 2022-07-14)"
   xmlns:inkscape="http://www.inkscape.org/namespaces/inkscape"
   xmlns:sodipodi="http://sodipodi.sourceforge.net/DTD/sodipodi-0.dtd"
   xmlns="http://www.w3.org/2000/svg"
   xmlns:svg="http://www.w3.org/2000/svg">
  <sodipodi:namedview
     id="namedview59"
     pagecolor="#505050"
     bordercolor="#eeeeee"
     borderopacity="1"
     inkscape:showpageshadow="0"
     inkscape:pageopacity="0"
     inkscape:pagecheckerboard="0"
     inkscape:deskcolor="#505050"
     showgrid="false"
     inkscape:zoom="0.39797639"
     inkscape:cx="417.11017"
     inkscape:cy="82.919492"
     inkscape:window-width="714"
     inkscape:window-height="884"
     inkscape:window-x="790"
     inkscape:window-y="54"
     inkscape:window-maximized="0"
     inkscape:current-layer="svg57" />
  <defs
     id="defs4">
    <style
       id="style2">
      .cls-1 {
        fill: none;
        stroke: #fff;
        stroke-miterlimit: 10;
        stroke-width: 10px;
      }

      .cls-2 {
        fill: #fff;
      }

      .cls-2, .cls-3 {
        stroke-width: 0px;
      }

      .cls-3 {
        fill: #fbfbfb;
      }
    </style>
  </defs>
  <g
     id="Logo-Final"
     transform="translate(-121.98,-214.26001)">
    <g
       id="Layer_13"
       data-name="Layer 13">
      <g
         id="g24">
        <ellipse
           class="cls-1"
           cx="190.89999"
           cy="266.70001"
           rx="63.919998"
           ry="47.439999"
           id="ellipse6" />
        <path
           class="cls-1"
           d="m 249.17,290.24 c 3.23,4.83 5.87,11 5.87,16.58 0,5.58 -1.79,10.9 -5.02,15.73 -3.23,4.83 -7.91,9.19 -13.7,12.85 -5.78,3.66 -12.67,6.62 -20.32,8.66 -7.65,2.04 -16.05,3.18 -24.88,3.18 -8.83,0 -17.23,-1.13 -24.88,-3.18 -7.65,-2.04 -14.53,-5 -20.32,-8.66 -5.79,-3.66 -10.46,-8.01 -13.7,-12.85 -3.24,-4.84 -5.02,-10.15 -5.02,-15.73 0,-5.58 1.79,-11.74 5.02,-16.58"
           id="path8" />
        <rect
           class="cls-2"
           x="164.14"
           y="262.23999"
           width="53.720001"
           height="9.0900002"
           id="rect10" />
        <rect
           class="cls-2"
           x="150.83"
           y="268"
           width="13.44"
           height="9.1899996"
           id="rect12" />
        <rect
           class="cls-2"
           x="139.53999"
           y="274.04001"
           width="11.3"
           height="9.1199999"
           id="rect14" />
        <rect
           class="cls-2"
           x="131.53"
           y="280.70001"
           width="8"
           height="7.9499998"
           id="rect16" />
        <rect
           class="cls-2"
           x="217.75999"
           y="268.06"
           width="13.44"
           height="9.1899996"
           id="rect18" />
        <rect
           class="cls-2"
           x="231.06"
           y="274.09"
           width="11.13"
           height="9.1199999"
           id="rect20" />
        <rect
           class="cls-2"
           x="242.17999"
           y="280.75"
           width="8.21"
           height="7.9499998"
           id="rect22" />
      </g>
    </g>
  </g>
</svg>
